<?xml version="1.0" standalone="no"?>
<!DOCTYPE svg PUBLIC "-//W3C//DTD SVG 20010904//EN"
 "http://www.w3.org/TR/2001/REC-SVG-20010904/DTD/svg10.dtd">
<svg version="1.0" xmlns="http://www.w3.org/2000/svg"
 width="274.000000pt" height="165.000000pt" viewBox="0 0 274.000000 165.000000"
 preserveAspectRatio="xMidYMid meet">
<metadata>
Created by potrace 1.15, written by Peter Selinger 2001-2017
</metadata>
<g transform="translate(0.000000,165.000000) scale(0.100000,-0.100000)"
fill="#000000" stroke="none">
<path d="M1945 1466 c-171 -33 -296 -114 -355 -230 -32 -64 -35 -76 -35 -160
0 -77 5 -100 26 -146 34 -71 88 -124 169 -165 76 -38 132 -55 292 -89 64 -13
133 -32 153 -42 105 -49 100 -156 -9 -208 l-55 -26 -330 0 -331 0 0 520 0 520
-160 0 -160 0 0 -225 0 -225 -184 0 -185 0 66 148 c36 81 71 163 78 183 7 20
22 54 34 76 11 22 17 43 14 47 -4 3 -81 6 -173 6 l-166 0 -34 -77 c-19 -43
-141 -321 -273 -618 -131 -297 -241 -546 -244 -553 -4 -10 31 -12 172 -10
l178 3 121 277 121 278 238 0 237 0 0 -275 0 -275 539 0 c509 0 542 1 603 20
125 39 227 123 277 230 35 75 37 220 4 291 -56 124 -178 190 -458 249 -140 29
-192 48 -215 77 -26 33 -26 83 1 117 91 116 373 95 574 -44 74 -51 75 -50 75
115 l0 144 -67 21 c-178 53 -401 73 -538 46z"/>
</g>
</svg>
